<?xml version="1.0" standalone="no"?>
<!DOCTYPE svg PUBLIC "-//W3C//DTD SVG 20010904//EN"
 "http://www.w3.org/TR/2001/REC-SVG-20010904/DTD/svg10.dtd">
<svg version="1.0" xmlns="http://www.w3.org/2000/svg"
 width="96" height="96" viewBox="0 0 228 210"
 preserveAspectRatio="xMidYMid meet">

<g transform="translate(0.000000,210.000000) scale(0.100000,-0.100000)"
fill="#CC0000" stroke="none">
<path d="M210 2060 c0 -37 -2 -40 -22 -35 -50 11 -170 35 -179 35 -5 0 -9
-340 -9 -877 l0 -878 553 -153 c303 -83 561 -152 572 -153 11 0 275 69 587
153 l568 153 0 878 c0 695 -3 877 -12 877 -7 -1 -52 -9 -100 -19 l-88 -18 0
38 c0 25 -5 39 -12 39 -7 0 -62 -16 -123 -34 -126 -39 -702 -211 -756 -226
-20 -5 -47 -10 -60 -10 -25 0 -643 181 -676 198 -17 9 -224 72 -237 72 -3 0
-6 -18 -6 -40z m1583 -692 c8 -11 -23 -80 -117 -267 -70 -139 -126 -255 -123
-257 2 -3 27 17 54 43 36 35 66 80 108 163 32 63 59 117 61 119 8 9 55 -11 64
-29 9 -16 -1 -43 -55 -150 -36 -71 -65 -133 -65 -137 0 -13 111 101 157 162
25 33 56 81 69 107 14 28 31 48 41 48 21 0 53 -29 53 -47 0 -7 -29 -72 -65
-143 -36 -72 -62 -130 -57 -130 4 0 30 20 59 45 42 37 53 42 62 31 9 -11 2
-22 -36 -55 -26 -23 -66 -54 -89 -69 -31 -21 -52 -48 -88 -114 -50 -93 -76
-120 -133 -139 -46 -15 -107 2 -129 37 -28 42 -7 68 99 121 93 46 95 47 128
112 46 91 46 90 3 50 -82 -76 -111 -84 -149 -43 l-24 26 -33 -25 c-59 -45
-108 -44 -123 2 -6 19 -8 18 -52 -10 -57 -36 -77 -36 -110 -3 -23 23 -25 31
-21 84 5 73 52 170 107 224 34 34 48 40 93 44 47 4 56 1 79 -21 l25 -26 65
131 c76 155 83 164 112 145 12 -7 25 -21 30 -29z m-825 -14 c46 -32 28 -40
-95 -39 -65 0 -139 -4 -166 -8 l-47 -8 -60 -120 -60 -119 73 0 c68 0 75 2 87
25 7 14 17 25 22 25 4 0 27 14 50 30 53 38 114 41 154 7 54 -47 42 -161 -27
-257 -37 -51 -113 -100 -154 -100 -79 0 -124 88 -95 189 l9 34 -72 -8 c-39 -3
-75 -9 -80 -12 -4 -2 -41 -71 -82 -153 -41 -82 -79 -151 -84 -155 -14 -8 -48
11 -61 35 -8 15 -5 30 14 67 13 27 31 73 40 103 l16 55 -25 18 c-32 24 -32 45
0 53 28 7 31 21 11 68 -17 41 -61 76 -94 76 -25 0 -62 25 -62 42 0 11 78 46
196 88 113 40 194 61 264 67 30 3 57 7 59 9 2 2 59 4 125 4 94 0 127 -4 144
-16z m277 -207 c77 -66 13 -261 -109 -332 -142 -83 -227 63 -135 235 17 33 36
60 40 60 5 0 28 14 51 30 53 38 114 41 153 7z"/>
<path d="M1495 1091 c-62 -37 -125 -137 -140 -223 -9 -50 4 -49 72 4 45 34 63
58 100 131 35 70 42 92 31 98 -19 13 -30 11 -63 -10z"/>
<path d="M1670 676 c-25 -13 -54 -33 -64 -45 -19 -21 -19 -21 6 -21 29 0 85
35 106 68 18 28 9 27 -48 -2z"/>
<path d="M420 1234 c-52 -19 -103 -37 -112 -41 -25 -7 -23 -14 14 -48 17 -16
40 -48 50 -71 13 -32 23 -41 36 -37 21 5 138 233 119 232 -6 0 -55 -16 -107
-35z"/>
<path d="M875 1096 c-17 -7 -45 -30 -63 -50 -26 -30 -32 -45 -32 -81 0 -46 -4
-51 -30 -35 -20 12 -30 -6 -30 -57 0 -32 4 -43 15 -43 72 0 184 142 185 232 0
45 -7 50 -45 34z"/>
<path d="M1180 1089 c-50 -29 -80 -76 -80 -127 0 -43 -5 -48 -30 -32 -20 12
-30 -6 -30 -57 0 -48 11 -53 58 -29 73 39 142 146 142 221 0 51 -8 55 -60 24z"/>
</g>
</svg>
