<?xml version="1.0" standalone="no"?>
<!DOCTYPE svg PUBLIC "-//W3C//DTD SVG 20010904//EN"
 "http://www.w3.org/TR/2001/REC-SVG-20010904/DTD/svg10.dtd">
<svg version="1.0" xmlns="http://www.w3.org/2000/svg"
 width="96" height="96" viewBox="0 0 1359.000000 1251.000000"
 preserveAspectRatio="xMidYMid meet">

<g transform="translate(0.000000,1251.000000) scale(0.100000,-0.100000)"
fill="#CC0000" stroke="none">
<path d="M11500 12144 c-393 -117 -716 -214 -717 -214 -2 0 -3 9 -3 19 0 11
-4 22 -8 25 -5 3 -310 -84 -678 -193 -2836 -842 -2503 -740 -2974 -916 -173
-65 -322 -118 -330 -118 -8 1 -80 26 -160 57 -513 194 -606 224 -2189 695
-1579 470 -1606 478 -1609 455 -2 -13 -7 -24 -11 -24 -5 0 -331 95 -726 210
-396 116 -722 210 -727 210 -4 0 -8 -91 -8 -203 0 -112 -2 -206 -5 -209 -3 -2
-40 2 -83 10 -161 30 -1157 188 -1164 185 -5 -2 -8 -2299 -8 -5104 l0 -5099
23 -10 c12 -6 1472 -417 3243 -915 l3222 -905 93 0 c93 0 120 7 3445 910 1844
500 3355 910 3358 910 3 0 6 2297 6 5105 0 4077 -3 5105 -12 5105 -7 0 -282
-54 -611 -121 -329 -66 -601 -119 -603 -116 -3 3 -5 109 -4 236 l1 231 -23 -1
c-13 0 -345 -97 -738 -215z"/>
</g>
</svg>
