<?xml version="1.0" encoding="utf-8"?>
<!-- Generator: Adobe Illustrator 22.1.0, SVG Export Plug-In . SVG Version: 6.00 Build 0)  -->
<svg version="1.1" id="Слой_1" xmlns="http://www.w3.org/2000/svg" xmlns:xlink="http://www.w3.org/1999/xlink" x="0px" y="0px"
	 viewBox="0 0 50 50" style="enable-background:new 0 0 50 50;" xml:space="preserve">
<style type="text/css">
	.st0{fill:none;stroke:#C10202;stroke-width:2;stroke-miterlimit:10;}
</style>
<path class="st0" d="M39.6,48.5H10.9c-4.1,0-7.4-3.3-7.4-7.4V8.9c0-4.1,3.3-7.4,7.4-7.4h28.6c4.1,0,7.4,3.3,7.4,7.4v32.1
	C47,45.2,43.7,48.5,39.6,48.5z"/>
<line class="st0" x1="7" y1="25" x2="43" y2="25"/>
<line class="st0" x1="7" y1="34" x2="25" y2="34"/>
<line class="st0" x1="7" y1="41" x2="25" y2="41"/>
<line class="st0" x1="25" y1="17" x2="43" y2="17"/>
<line class="st0" x1="25" y1="10" x2="43" y2="10"/>
<rect x="8" y="8" class="st0" width="14" height="10"/>
<rect x="28" y="32" class="st0" width="14" height="10"/>
</svg>
