<?xml version="1.0" encoding="utf-8"?>
<!-- Generator: Adobe Illustrator 22.1.0, SVG Export Plug-In . SVG Version: 6.00 Build 0)  -->
<svg version="1.1" id="Слой_1" xmlns="http://www.w3.org/2000/svg" xmlns:xlink="http://www.w3.org/1999/xlink" x="0px" y="0px"
	 viewBox="0 0 50 50" style="enable-background:new 0 0 50 50;" xml:space="preserve">
<style type="text/css">
	.st0{fill:#DDDDDD;stroke:#000000;stroke-width:2;stroke-miterlimit:10;}
	.st1{fill:none;stroke:#000000;stroke-width:2;stroke-linecap:round;stroke-miterlimit:10;}
</style>
<g>
	<circle class="st0" cx="25" cy="25" r="23"/>
	<path class="st1" d="M42,19.5c0-4.2-3.7-7.6-8.3-7.6c-0.2,0-0.4,0-0.6,0c-0.7-3.6-4.1-6.3-8.2-6.3s-7.5,2.7-8.2,6.3
		c-0.2,0-0.4,0-0.6,0c-4.6,0-8.3,3.4-8.3,7.6c0,3.9,3.2,7.1,7.4,7.6v13.1c0.8,0.7,4.8,4.2,10.8,4c5.4-0.2,8.9-3.2,9.8-4V26.9
		C39.3,26.1,42,23.1,42,19.5z"/>
</g>
</svg>
